<?xml version="1.0" encoding="UTF-8"?>
<svg xmlns="http://www.w3.org/2000/svg" xmlns:xlink="http://www.w3.org/1999/xlink" width="px" height="px" viewBox="0 0 375 375" version="1.1">
<g id="surface1">
<path style=" stroke:none;fill-rule:nonzero;fill:rgb(97.647059%,84.705883%,29.411766%);fill-opacity:1;" d="M 276.601562 41.289062 C 282.828125 52.074219 279.132812 65.863281 268.351562 72.085938 C 257.566406 78.3125 243.777344 74.617188 237.550781 63.832031 C 236.316406 61.695312 235.476562 59.441406 235 57.148438 L 205.476562 57.148438 C 204.492188 61.847656 202.011719 66.21875 198.25 69.5 L 212.996094 95.039062 C 222.988281 91.617188 234.324219 95.613281 239.804688 105.105469 C 246.03125 115.890625 242.339844 129.679688 231.550781 135.902344 C 225.453125 139.425781 218.394531 139.769531 212.28125 137.457031 L 197.710938 162.699219 C 199.785156 164.382812 201.59375 166.46875 203.007812 168.921875 C 209.238281 179.707031 205.542969 193.492188 194.757812 199.71875 C 183.976562 205.945312 170.1875 202.25 163.957031 191.46875 C 157.734375 180.683594 161.429688 166.894531 172.214844 160.671875 C 177.824219 157.429688 184.25 156.878906 190 158.613281 L 204.875 132.847656 C 203.292969 131.363281 201.898438 129.628906 200.757812 127.652344 C 199.445312 125.378906 198.574219 122.96875 198.113281 120.527344 L 168.765625 120.527344 C 167.589844 126.75 163.808594 132.445312 157.886719 135.863281 C 147.105469 142.085938 133.316406 138.390625 127.089844 127.609375 C 121.613281 118.117188 123.816406 106.300781 131.777344 99.359375 L 117.03125 73.816406 C 107.039062 77.238281 95.703125 73.242188 90.222656 63.75 C 84 52.96875 87.691406 39.175781 98.476562 32.953125 C 109.257812 26.726562 123.046875 30.421875 129.273438 41.203125 C 134.75 50.695312 132.546875 62.515625 124.585938 69.457031 L 139.332031 95 C 144.1875 93.332031 149.367188 93.425781 154.035156 95.046875 L 168.710938 69.625 C 166.832031 68.011719 165.195312 66.058594 163.886719 63.792969 C 157.660156 53.007812 161.355469 39.21875 172.140625 32.996094 C 182.921875 26.769531 196.710938 30.464844 202.933594 41.246094 C 204.257812 43.539062 205.132812 45.96875 205.585938 48.429688 L 234.914062 48.429688 C 236.085938 42.183594 239.867188 36.46875 245.804688 33.039062 C 256.585938 26.8125 270.375 30.507812 276.601562 41.289062 Z M 198.207031 111.804688 C 199.1875 107.085938 201.664062 102.695312 205.445312 99.398438 L 190.699219 73.859375 C 185.949219 75.488281 180.890625 75.433594 176.304688 73.914062 L 161.5625 99.449219 C 163.332031 101.023438 164.890625 102.898438 166.140625 105.066406 C 167.386719 107.21875 168.234375 109.496094 168.707031 111.808594 L 198.207031 111.808594 Z M 198.207031 111.804688 "/>
<path style=" stroke:none;fill-rule:nonzero;fill:rgb(10.980392%,11.372549%,20%);fill-opacity:1;" d="M 46.757812 300.128906 L 32.351562 300.128906 L 12.945312 243.410156 L 27.070312 243.410156 L 39.554688 285.191406 L 52.039062 243.410156 L 66.164062 243.410156 Z M 46.757812 300.128906 "/>
<path style=" stroke:none;fill-rule:nonzero;fill:rgb(10.980392%,11.372549%,20%);fill-opacity:1;" d="M 87.347656 300.128906 L 74.035156 300.128906 L 74.035156 243.410156 L 87.347656 243.410156 Z M 87.347656 300.128906 "/>
<path style=" stroke:none;fill-rule:nonzero;fill:rgb(10.980392%,11.372549%,20%);fill-opacity:1;" d="M 138.78125 300.128906 L 100.046875 300.128906 L 100.046875 243.410156 L 138.78125 243.410156 L 138.78125 255.316406 L 113.359375 255.316406 L 113.359375 265.863281 L 136.328125 265.863281 L 136.328125 277.675781 L 113.359375 277.675781 L 113.359375 288.238281 L 138.78125 288.238281 Z M 138.78125 300.128906 "/>
<path style=" stroke:none;fill-rule:nonzero;fill:rgb(10.980392%,11.372549%,20%);fill-opacity:1;" d="M 166.9375 300.128906 L 161.8125 300.128906 L 161.8125 243.410156 L 170.0625 243.410156 L 188.5 294.925781 L 206.921875 243.410156 L 215.171875 243.410156 L 215.171875 300.128906 L 210.046875 300.128906 L 210.046875 248.847656 L 191.6875 300.128906 L 185.296875 300.128906 L 166.9375 248.691406 Z M 166.9375 300.128906 "/>
<path style=" stroke:none;fill-rule:nonzero;fill:rgb(10.980392%,11.372549%,20%);fill-opacity:1;" d="M 237.246094 300.128906 L 232.121094 300.128906 L 232.121094 243.410156 L 237.246094 243.410156 Z M 237.246094 300.128906 "/>
<path style=" stroke:none;fill-rule:nonzero;fill:rgb(10.980392%,11.372549%,20%);fill-opacity:1;" d="M 259.398438 300.128906 L 254.273438 300.128906 L 254.273438 243.410156 L 262.148438 243.410156 L 289.726562 295.441406 L 289.726562 243.410156 L 294.773438 243.410156 L 294.773438 300.128906 L 286.898438 300.128906 L 259.398438 248.316406 Z M 259.398438 300.128906 "/>
<path style=" stroke:none;fill-rule:nonzero;fill:rgb(10.980392%,11.372549%,20%);fill-opacity:1;" d="M 326.875 300.128906 L 311.796875 300.128906 L 311.796875 243.410156 L 326.953125 243.410156 C 336.316406 243.410156 343.476562 245.890625 348.4375 250.847656 C 353.394531 255.808594 355.875 262.871094 355.875 272.035156 C 355.875 281.003906 353.382812 287.933594 348.40625 292.816406 C 343.425781 297.691406 336.25 300.128906 326.875 300.128906 Z M 316.921875 248.019531 L 316.921875 295.519531 L 326.875 295.519531 C 330.25 295.519531 333.382812 295.125 336.28125 294.332031 C 339.1875 293.542969 341.726562 292.246094 343.90625 290.441406 C 346.082031 288.628906 347.773438 286.222656 348.984375 283.222656 C 350.203125 280.222656 350.8125 276.496094 350.8125 272.035156 C 350.8125 266.339844 349.832031 261.730469 347.875 258.207031 C 345.914062 254.6875 343.148438 252.109375 339.578125 250.472656 C 336.015625 248.839844 331.804688 248.019531 326.953125 248.019531 Z M 316.921875 248.019531 "/>
<path style=" stroke:none;fill-rule:nonzero;fill:rgb(97.647059%,84.705883%,29.411766%);fill-opacity:1;" d="M 22.125 331.613281 L 18.1875 331.613281 L 18.1875 342.847656 L 15.390625 342.847656 L 15.390625 331.613281 L 11.453125 331.613281 L 11.453125 329.363281 L 22.125 329.363281 Z M 22.125 331.613281 "/>
<path style=" stroke:none;fill-rule:nonzero;fill:rgb(97.647059%,84.705883%,29.411766%);fill-opacity:1;" d="M 38.855469 331.550781 L 38.855469 335.019531 L 43.355469 335.019531 L 43.355469 337.128906 L 38.855469 337.128906 L 38.855469 340.660156 L 44.636719 340.660156 L 44.636719 342.847656 L 36.042969 342.847656 L 36.042969 329.363281 L 44.636719 329.363281 L 44.636719 331.550781 Z M 38.855469 331.550781 "/>
<path style=" stroke:none;fill-rule:nonzero;fill:rgb(97.647059%,84.705883%,29.411766%);fill-opacity:1;" d="M 68.136719 339.535156 C 68.292969 339.535156 68.421875 339.589844 68.527344 339.691406 L 69.621094 340.878906 C 69.078125 341.578125 68.402344 342.109375 67.589844 342.472656 C 66.785156 342.828125 65.828125 343.003906 64.714844 343.003906 C 63.703125 343.003906 62.792969 342.832031 61.980469 342.488281 C 61.175781 342.144531 60.496094 341.667969 59.933594 341.050781 C 59.371094 340.4375 58.9375 339.707031 58.636719 338.863281 C 58.332031 338.019531 58.183594 337.097656 58.183594 336.097656 C 58.183594 335.433594 58.253906 334.796875 58.402344 334.191406 C 58.546875 333.589844 58.753906 333.035156 59.027344 332.535156 C 59.308594 332.027344 59.644531 331.566406 60.042969 331.160156 C 60.4375 330.746094 60.878906 330.394531 61.371094 330.113281 C 61.871094 329.824219 62.410156 329.605469 62.996094 329.457031 C 63.578125 329.300781 64.203125 329.222656 64.871094 329.222656 C 65.371094 329.222656 65.839844 329.269531 66.277344 329.363281 C 66.722656 329.449219 67.136719 329.566406 67.511719 329.722656 C 67.894531 329.871094 68.25 330.050781 68.574219 330.269531 C 68.90625 330.488281 69.203125 330.730469 69.464844 330.988281 L 68.527344 332.269531 C 68.464844 332.355469 68.390625 332.425781 68.308594 332.488281 C 68.222656 332.550781 68.105469 332.582031 67.949219 332.582031 C 67.800781 332.582031 67.652344 332.53125 67.496094 332.425781 C 67.347656 332.324219 67.167969 332.207031 66.949219 332.082031 C 66.730469 331.949219 66.453125 331.828125 66.121094 331.722656 C 65.785156 331.621094 65.363281 331.566406 64.855469 331.566406 C 64.292969 331.566406 63.777344 331.671875 63.308594 331.878906 C 62.839844 332.078125 62.433594 332.371094 62.089844 332.753906 C 61.753906 333.140625 61.496094 333.613281 61.308594 334.175781 C 61.128906 334.738281 61.042969 335.378906 61.042969 336.097656 C 61.042969 336.828125 61.140625 337.480469 61.339844 338.050781 C 61.535156 338.613281 61.808594 339.09375 62.152344 339.488281 C 62.503906 339.875 62.917969 340.167969 63.386719 340.363281 C 63.855469 340.5625 64.355469 340.660156 64.886719 340.660156 C 65.207031 340.660156 65.496094 340.644531 65.746094 340.613281 C 66.003906 340.582031 66.246094 340.53125 66.464844 340.457031 C 66.683594 340.386719 66.890625 340.292969 67.089844 340.175781 C 67.285156 340.050781 67.484375 339.902344 67.683594 339.722656 C 67.746094 339.671875 67.8125 339.628906 67.886719 339.597656 C 67.957031 339.558594 68.042969 339.535156 68.136719 339.535156 Z M 68.136719 339.535156 "/>
<path style=" stroke:none;fill-rule:nonzero;fill:rgb(97.647059%,84.705883%,29.411766%);fill-opacity:1;" d="M 94.984375 329.363281 L 94.984375 342.847656 L 92.1875 342.847656 L 92.1875 337.035156 L 86.25 337.035156 L 86.25 342.847656 L 83.4375 342.847656 L 83.4375 329.363281 L 86.25 329.363281 L 86.25 335.097656 L 92.1875 335.097656 L 92.1875 329.363281 Z M 94.984375 329.363281 "/>
<path style=" stroke:none;fill-rule:nonzero;fill:rgb(97.647059%,84.705883%,29.411766%);fill-opacity:1;" d="M 135.894531 339.535156 C 136.050781 339.535156 136.179688 339.589844 136.285156 339.691406 L 137.378906 340.878906 C 136.835938 341.578125 136.160156 342.109375 135.347656 342.472656 C 134.542969 342.828125 133.585938 343.003906 132.472656 343.003906 C 131.460938 343.003906 130.550781 342.832031 129.738281 342.488281 C 128.933594 342.144531 128.253906 341.667969 127.691406 341.050781 C 127.128906 340.4375 126.695312 339.707031 126.394531 338.863281 C 126.089844 338.019531 125.941406 337.097656 125.941406 336.097656 C 125.941406 335.433594 126.011719 334.796875 126.160156 334.191406 C 126.304688 333.589844 126.511719 333.035156 126.785156 332.535156 C 127.066406 332.027344 127.402344 331.566406 127.800781 331.160156 C 128.195312 330.746094 128.636719 330.394531 129.128906 330.113281 C 129.628906 329.824219 130.167969 329.605469 130.753906 329.457031 C 131.335938 329.300781 131.960938 329.222656 132.628906 329.222656 C 133.128906 329.222656 133.597656 329.269531 134.035156 329.363281 C 134.480469 329.449219 134.894531 329.566406 135.269531 329.722656 C 135.652344 329.871094 136.007812 330.050781 136.332031 330.269531 C 136.664062 330.488281 136.960938 330.730469 137.222656 330.988281 L 136.285156 332.269531 C 136.222656 332.355469 136.148438 332.425781 136.066406 332.488281 C 135.980469 332.550781 135.863281 332.582031 135.707031 332.582031 C 135.558594 332.582031 135.410156 332.53125 135.253906 332.425781 C 135.105469 332.324219 134.925781 332.207031 134.707031 332.082031 C 134.488281 331.949219 134.210938 331.828125 133.878906 331.722656 C 133.542969 331.621094 133.121094 331.566406 132.613281 331.566406 C 132.050781 331.566406 131.535156 331.671875 131.066406 331.878906 C 130.597656 332.078125 130.191406 332.371094 129.847656 332.753906 C 129.511719 333.140625 129.253906 333.613281 129.066406 334.175781 C 128.886719 334.738281 128.800781 335.378906 128.800781 336.097656 C 128.800781 336.828125 128.898438 337.480469 129.097656 338.050781 C 129.292969 338.613281 129.566406 339.09375 129.910156 339.488281 C 130.261719 339.875 130.675781 340.167969 131.144531 340.363281 C 131.613281 340.5625 132.113281 340.660156 132.644531 340.660156 C 132.964844 340.660156 133.253906 340.644531 133.503906 340.613281 C 133.761719 340.582031 134.003906 340.53125 134.222656 340.457031 C 134.441406 340.386719 134.648438 340.292969 134.847656 340.175781 C 135.042969 340.050781 135.242188 339.902344 135.441406 339.722656 C 135.503906 339.671875 135.570312 339.628906 135.644531 339.597656 C 135.714844 339.558594 135.800781 339.535156 135.894531 339.535156 Z M 135.894531 339.535156 "/>
<path style=" stroke:none;fill-rule:nonzero;fill:rgb(97.647059%,84.705883%,29.411766%);fill-opacity:1;" d="M 164.226562 336.097656 C 164.226562 337.089844 164.058594 338.003906 163.726562 338.847656 C 163.390625 339.691406 162.921875 340.421875 162.320312 341.035156 C 161.714844 341.640625 160.984375 342.121094 160.132812 342.472656 C 159.289062 342.828125 158.351562 343.003906 157.320312 343.003906 C 156.289062 343.003906 155.34375 342.828125 154.492188 342.472656 C 153.648438 342.121094 152.917969 341.640625 152.304688 341.035156 C 151.699219 340.421875 151.230469 339.691406 150.898438 338.847656 C 150.574219 338.003906 150.414062 337.089844 150.414062 336.097656 C 150.414062 335.121094 150.574219 334.214844 150.898438 333.378906 C 151.230469 332.535156 151.699219 331.808594 152.304688 331.191406 C 152.917969 330.578125 153.648438 330.097656 154.492188 329.753906 C 155.34375 329.402344 156.289062 329.222656 157.320312 329.222656 C 158.351562 329.222656 159.289062 329.402344 160.132812 329.753906 C 160.984375 330.097656 161.714844 330.578125 162.320312 331.191406 C 162.921875 331.808594 163.390625 332.535156 163.726562 333.378906 C 164.058594 334.214844 164.226562 335.121094 164.226562 336.097656 Z M 161.367188 336.097656 C 161.367188 335.402344 161.273438 334.769531 161.085938 334.207031 C 160.90625 333.644531 160.640625 333.171875 160.289062 332.785156 C 159.933594 332.390625 159.507812 332.089844 159.007812 331.878906 C 158.515625 331.671875 157.953125 331.566406 157.320312 331.566406 C 156.683594 331.566406 156.117188 331.671875 155.617188 331.878906 C 155.117188 332.089844 154.6875 332.390625 154.335938 332.785156 C 153.992188 333.171875 153.726562 333.644531 153.539062 334.207031 C 153.351562 334.769531 153.257812 335.402344 153.257812 336.097656 C 153.257812 336.816406 153.351562 337.457031 153.539062 338.019531 C 153.726562 338.574219 153.992188 339.046875 154.335938 339.441406 C 154.6875 339.828125 155.117188 340.125 155.617188 340.332031 C 156.117188 340.542969 156.683594 340.644531 157.320312 340.644531 C 157.953125 340.644531 158.515625 340.542969 159.007812 340.332031 C 159.507812 340.125 159.933594 339.828125 160.289062 339.441406 C 160.640625 339.046875 160.90625 338.574219 161.085938 338.019531 C 161.273438 337.457031 161.367188 336.816406 161.367188 336.097656 Z M 161.367188 336.097656 "/>
<path style=" stroke:none;fill-rule:nonzero;fill:rgb(97.647059%,84.705883%,29.411766%);fill-opacity:1;" d="M 190.050781 329.363281 L 190.050781 342.847656 L 188.613281 342.847656 C 188.394531 342.847656 188.210938 342.8125 188.066406 342.738281 C 187.917969 342.667969 187.773438 342.546875 187.628906 342.378906 L 180.910156 333.832031 C 180.929688 334.050781 180.945312 334.265625 180.957031 334.472656 C 180.964844 334.683594 180.972656 334.875 180.972656 335.050781 L 180.972656 342.847656 L 178.503906 342.847656 L 178.503906 329.363281 L 179.972656 329.363281 C 180.097656 329.363281 180.199219 329.371094 180.285156 329.378906 C 180.367188 329.390625 180.441406 329.417969 180.503906 329.457031 C 180.574219 329.488281 180.644531 329.53125 180.707031 329.582031 C 180.769531 329.636719 180.835938 329.707031 180.910156 329.800781 L 187.675781 338.394531 C 187.644531 338.15625 187.621094 337.925781 187.613281 337.707031 C 187.601562 337.488281 187.597656 337.28125 187.597656 337.082031 L 187.597656 329.363281 Z M 190.050781 329.363281 "/>
<path style=" stroke:none;fill-rule:nonzero;fill:rgb(97.647059%,84.705883%,29.411766%);fill-opacity:1;" d="M 212.429688 331.957031 C 212.335938 332.09375 212.242188 332.199219 212.148438 332.269531 C 212.0625 332.332031 211.949219 332.363281 211.804688 332.363281 C 211.667969 332.363281 211.523438 332.316406 211.367188 332.222656 C 211.210938 332.121094 211.027344 332.015625 210.820312 331.910156 C 210.609375 331.796875 210.367188 331.691406 210.085938 331.597656 C 209.8125 331.503906 209.496094 331.457031 209.132812 331.457031 C 208.484375 331.457031 208 331.605469 207.679688 331.894531 C 207.367188 332.175781 207.210938 332.546875 207.210938 333.003906 C 207.210938 333.308594 207.292969 333.558594 207.460938 333.753906 C 207.636719 333.941406 207.871094 334.109375 208.164062 334.253906 C 208.453125 334.402344 208.78125 334.53125 209.148438 334.644531 C 209.511719 334.75 209.886719 334.871094 210.273438 335.003906 C 210.65625 335.140625 211.03125 335.296875 211.398438 335.472656 C 211.761719 335.652344 212.085938 335.878906 212.367188 336.160156 C 212.65625 336.433594 212.890625 336.765625 213.070312 337.160156 C 213.246094 337.546875 213.335938 338.019531 213.335938 338.582031 C 213.335938 339.199219 213.226562 339.777344 213.007812 340.316406 C 212.796875 340.847656 212.492188 341.316406 212.085938 341.722656 C 211.6875 342.121094 211.195312 342.433594 210.601562 342.660156 C 210.007812 342.886719 209.335938 343.003906 208.585938 343.003906 C 208.15625 343.003906 207.730469 342.957031 207.304688 342.863281 C 206.886719 342.78125 206.480469 342.660156 206.085938 342.503906 C 205.6875 342.347656 205.320312 342.167969 204.976562 341.957031 C 204.632812 341.738281 204.328125 341.496094 204.070312 341.222656 L 204.882812 339.910156 C 204.945312 339.808594 205.03125 339.722656 205.148438 339.660156 C 205.261719 339.597656 205.382812 339.566406 205.507812 339.566406 C 205.671875 339.566406 205.84375 339.628906 206.023438 339.753906 C 206.210938 339.871094 206.421875 340.003906 206.664062 340.160156 C 206.914062 340.308594 207.195312 340.441406 207.507812 340.566406 C 207.828125 340.691406 208.214844 340.753906 208.664062 340.753906 C 209.308594 340.753906 209.808594 340.609375 210.164062 340.316406 C 210.527344 340.015625 210.710938 339.566406 210.710938 338.972656 C 210.710938 338.628906 210.621094 338.355469 210.445312 338.144531 C 210.265625 337.9375 210.03125 337.765625 209.742188 337.628906 C 209.460938 337.484375 209.136719 337.359375 208.773438 337.253906 C 208.40625 337.152344 208.03125 337.035156 207.648438 336.910156 C 207.261719 336.785156 206.886719 336.640625 206.523438 336.472656 C 206.15625 336.296875 205.828125 336.066406 205.539062 335.785156 C 205.257812 335.496094 205.027344 335.140625 204.851562 334.722656 C 204.671875 334.296875 204.585938 333.769531 204.585938 333.144531 C 204.585938 332.644531 204.683594 332.160156 204.882812 331.691406 C 205.089844 331.222656 205.382812 330.808594 205.757812 330.441406 C 206.140625 330.078125 206.617188 329.785156 207.179688 329.566406 C 207.742188 329.339844 208.382812 329.222656 209.101562 329.222656 C 209.914062 329.222656 210.664062 329.347656 211.351562 329.597656 C 212.046875 329.847656 212.636719 330.199219 213.117188 330.644531 Z M 212.429688 331.957031 "/>
<path style=" stroke:none;fill-rule:nonzero;fill:rgb(97.647059%,84.705883%,29.411766%);fill-opacity:1;" d="M 233.117188 340.613281 C 233.574219 340.613281 233.980469 340.542969 234.335938 340.394531 C 234.699219 340.238281 235 340.027344 235.242188 339.753906 C 235.492188 339.472656 235.679688 339.136719 235.804688 338.738281 C 235.9375 338.34375 236.007812 337.894531 236.007812 337.394531 L 236.007812 329.363281 L 238.804688 329.363281 L 238.804688 337.394531 C 238.804688 338.21875 238.667969 338.972656 238.398438 339.660156 C 238.136719 340.339844 237.761719 340.925781 237.273438 341.425781 C 236.78125 341.917969 236.1875 342.300781 235.492188 342.582031 C 234.792969 342.863281 234 343.003906 233.117188 343.003906 C 232.242188 343.003906 231.449219 342.863281 230.742188 342.582031 C 230.042969 342.300781 229.449219 341.917969 228.960938 341.425781 C 228.46875 340.925781 228.09375 340.339844 227.835938 339.660156 C 227.574219 338.972656 227.445312 338.21875 227.445312 337.394531 L 227.445312 329.363281 L 230.226562 329.363281 L 230.226562 337.394531 C 230.226562 337.894531 230.289062 338.34375 230.414062 338.738281 C 230.546875 339.136719 230.742188 339.472656 230.992188 339.753906 C 231.242188 340.027344 231.542969 340.238281 231.898438 340.394531 C 232.261719 340.542969 232.667969 340.613281 233.117188 340.613281 Z M 233.117188 340.613281 "/>
<path style=" stroke:none;fill-rule:nonzero;fill:rgb(97.647059%,84.705883%,29.411766%);fill-opacity:1;" d="M 261.695312 340.582031 L 261.695312 342.847656 L 253.695312 342.847656 L 253.695312 329.363281 L 256.492188 329.363281 L 256.492188 340.582031 Z M 261.695312 340.582031 "/>
<path style=" stroke:none;fill-rule:nonzero;fill:rgb(97.647059%,84.705883%,29.411766%);fill-opacity:1;" d="M 285.183594 331.613281 L 281.246094 331.613281 L 281.246094 342.847656 L 278.449219 342.847656 L 278.449219 331.613281 L 274.511719 331.613281 L 274.511719 329.363281 L 285.183594 329.363281 Z M 285.183594 331.613281 "/>
<path style=" stroke:none;fill-rule:nonzero;fill:rgb(97.647059%,84.705883%,29.411766%);fill-opacity:1;" d="M 301.914062 342.847656 L 299.101562 342.847656 L 299.101562 329.363281 L 301.914062 329.363281 Z M 301.914062 342.847656 "/>
<path style=" stroke:none;fill-rule:nonzero;fill:rgb(97.647059%,84.705883%,29.411766%);fill-opacity:1;" d="M 328.523438 329.363281 L 328.523438 342.847656 L 327.085938 342.847656 C 326.867188 342.847656 326.683594 342.8125 326.539062 342.738281 C 326.390625 342.667969 326.246094 342.546875 326.101562 342.378906 L 319.382812 333.832031 C 319.402344 334.050781 319.417969 334.265625 319.429688 334.472656 C 319.4375 334.683594 319.445312 334.875 319.445312 335.050781 L 319.445312 342.847656 L 316.976562 342.847656 L 316.976562 329.363281 L 318.445312 329.363281 C 318.570312 329.363281 318.671875 329.371094 318.757812 329.378906 C 318.839844 329.390625 318.914062 329.417969 318.976562 329.457031 C 319.046875 329.488281 319.117188 329.53125 319.179688 329.582031 C 319.242188 329.636719 319.308594 329.707031 319.382812 329.800781 L 326.148438 338.394531 C 326.117188 338.15625 326.09375 337.925781 326.085938 337.707031 C 326.074219 337.488281 326.070312 337.28125 326.070312 337.082031 L 326.070312 329.363281 Z M 328.523438 329.363281 "/>
<path style=" stroke:none;fill-rule:nonzero;fill:rgb(97.647059%,84.705883%,29.411766%);fill-opacity:1;" d="M 350.152344 335.988281 L 354.777344 335.988281 L 354.777344 341.550781 C 354.089844 342.050781 353.355469 342.421875 352.574219 342.660156 C 351.800781 342.886719 350.984375 343.003906 350.121094 343.003906 C 349.003906 343.003906 348 342.832031 347.105469 342.488281 C 346.207031 342.144531 345.4375 341.667969 344.792969 341.050781 C 344.15625 340.4375 343.667969 339.707031 343.324219 338.863281 C 342.980469 338.019531 342.808594 337.097656 342.808594 336.097656 C 342.808594 335.089844 342.96875 334.167969 343.292969 333.332031 C 343.625 332.488281 344.097656 331.765625 344.714844 331.160156 C 345.328125 330.546875 346.066406 330.074219 346.933594 329.738281 C 347.808594 329.394531 348.785156 329.222656 349.871094 329.222656 C 350.421875 329.222656 350.9375 329.269531 351.417969 329.363281 C 351.90625 329.449219 352.355469 329.566406 352.761719 329.722656 C 353.167969 329.878906 353.542969 330.066406 353.886719 330.285156 C 354.230469 330.503906 354.542969 330.746094 354.824219 331.003906 L 354.011719 332.253906 C 353.886719 332.453125 353.722656 332.574219 353.527344 332.613281 C 353.328125 332.65625 353.109375 332.605469 352.871094 332.457031 C 352.652344 332.324219 352.433594 332.203125 352.214844 332.097656 C 352.003906 331.984375 351.777344 331.890625 351.527344 331.816406 C 351.285156 331.734375 351.027344 331.671875 350.746094 331.628906 C 350.464844 331.589844 350.136719 331.566406 349.761719 331.566406 C 349.136719 331.566406 348.566406 331.675781 348.058594 331.894531 C 347.558594 332.105469 347.125 332.40625 346.761719 332.800781 C 346.40625 333.199219 346.128906 333.675781 345.933594 334.238281 C 345.746094 334.792969 345.652344 335.410156 345.652344 336.097656 C 345.652344 336.847656 345.753906 337.515625 345.964844 338.097656 C 346.183594 338.683594 346.480469 339.175781 346.855469 339.582031 C 347.238281 339.980469 347.699219 340.285156 348.230469 340.503906 C 348.769531 340.714844 349.371094 340.816406 350.027344 340.816406 C 350.472656 340.816406 350.871094 340.777344 351.214844 340.691406 C 351.566406 340.597656 351.910156 340.472656 352.246094 340.316406 L 352.246094 338.050781 L 350.730469 338.050781 C 350.550781 338.050781 350.410156 338.003906 350.308594 337.910156 C 350.203125 337.808594 350.152344 337.683594 350.152344 337.535156 Z M 350.152344 335.988281 "/>
</g>
</svg>
